<svg version="1" xmlns="http://www.w3.org/2000/svg" width="793.333" height="793.333" viewBox="0 0 595.000000 595.000000"><path d="M278 33.4c0 .9.8 1.6 2 1.6 1.1 0 3 1 4.1 2.1 2.1 2.1 2.1 2.8 1.7 24.9-.4 24.3-.7 26-5.4 26-1.7 0-2.4.6-2.4 2 0 1.9.7 2 15 2 12.2 0 15-.3 15-1.4 0-.8-1.4-1.9-3-2.5-1.7-.5-3.3-1.6-3.6-2.4-.2-.7-.4-5.4-.2-10.3l.3-8.9 9 12.5c10 13.7 9.2 13.2 22.8 14.3 5.4.5 6.7.3 6.7-.8 0-.8-.7-1.8-1.5-2.2-.9-.5-5.8-6.7-11.1-13.8l-9.5-13 3.9-1.6c10-4.3 13.3-16.5 6.4-23.5-5.2-5.2-8-5.8-29.9-6.2-18-.3-20.3-.2-20.3 1.2zm33.2 3.7c4.1 2.2 6 11.2 3.7 17.7-1.1 3.2-3.7 4.6-10.1 5.8l-3.8.6V49.3c0-6.6.3-12.3.7-12.6 1-1.1 7.2-.8 9.5.4zM229.3 40.9c-10.9 3.7-17.9 11-20.3 21.2-2.7 11.1 2.3 25.2 11.4 32 6.3 4.7 11.8 6.3 20.4 5.7 11.8-.9 21.2-7.3 26-17.6 3.3-7.4 2.9-19.1-1.1-26.8-6.9-13.5-21.9-19.5-36.4-14.5zm11.9 5.6c7.2 4.9 15.9 27.9 14.3 37.7-1.5 8.4-9.2 13.1-16.6 10.1-5-2-9.1-7.8-13.1-18.6-3.7-10.4-4.7-20-2.4-24.8 3.3-7 11.2-8.9 17.8-4.4zM367 43.5c-4.6 2.1-6.8 4.2-9.1 8.7-2.3 4.5-2.4 9.9-.3 14.3.8 1.8 5.3 7.1 10 11.8 7.5 7.5 8.4 8.8 8.4 12.1 0 2.6-.7 4.4-2.6 6.3-2.2 2.2-3.2 2.5-6.6 2-7.9-1.1-12.6-6.9-13.5-16.8-.8-8.9-2.9-7.6-6.4 4.1-1.6 5.2-2.9 9.8-2.9 10.2 0 1.2 3.5.9 4.7-.3.9-.9 1.9-.6 4.2 1 8.1 5.8 19.7 7.9 25.9 4.7 8.2-4.3 12.3-14 9.2-22.2-.6-1.4-5.3-7-10.5-12.4-10.3-10.6-11.1-12.6-7.4-17.4 1.6-2 2.9-2.6 5.9-2.6 7.1 0 12.1 6.4 13.2 17 .2 1.4 1 2.6 1.9 2.8 1.1.2 2.2-1.9 4.1-8.5 2.7-9.3 2.4-11.8-1.3-9.5-1.8 1.2-2.6 1-5.7-1-8.2-5.2-15.6-6.7-21.2-4.3zM176.5 62.6c-8.7 5.8-8.6 5.7-7.7 7.1.6 1 1.5 1 4 .1 4-1.5 5.5-.3 12.9 11.1 3 4.7 6.2 9.6 7.1 11 1 1.4 1.3 2.3.7 1.9-.5-.3-10.5-3.5-22.2-7.2L150.1 80l-8 5c-5.6 3.6-7.8 5.6-7.4 6.6.3.8 1.2 1.3 2 .9.8-.3 3.2-.1 5.2.5 3.3.9 4.6 2.6 15 18.7 6.3 9.8 11.6 18.6 11.9 19.6.3 1-.5 2.8-1.9 4.3-1.6 1.7-2 2.7-1.2 3.5.8.8 3.4-.5 9.2-4.3 9.2-6.1 10.3-8.1 3.9-7.2-3.7.5-4.6.2-6.4-1.8C169 122.2 153 97 154 97c.5 0 13 3.8 27.9 8.6 17.9 5.6 27.6 8.2 28.6 7.7 1.2-.7-1.2-5.1-12.8-22.9-7.9-12.1-14.6-22.7-15-23.6-.3-1 .3-2.8 1.4-4.2 1.8-2.3 1.9-4.6.1-4.6-.4 0-3.9 2.1-7.7 4.6zM416 60.3c0 .8.9 2.2 2 3.2s2 2.3 2 2.8c0 1.7-25.2 39.7-27.3 41.2-1.4 1-2.6 1.1-4.5.4-1.7-.6-2.9-.6-3.5 0-1.3 1.3-2.4.5 12.1 9.1 9.2 5.5 12.6 7 13.4 6.2.9-.9.6-1.8-1.1-3.6-1.6-1.7-2.1-3.1-1.7-4.3 1.4-3.5 10.1-16.3 11.2-16.3 1.1 0 1.5 2.8 3 20.4l.7 7.9-2.4-.7c-8.9-2.7-6.9.3 6.5 9.4 8.1 5.5 12.2 7.8 12.9 7.1.7-.7.6-1.5-.1-2.4-1.3-1.5-5.8-43.4-4.8-44.4.9-.9 17.8-4.2 21.9-4.3 2.1 0 5.4.7 7.4 1.5 2.5 1.1 4 1.2 4.7.5 1.3-1.3 1.2-1.4-10.9-9.4-6.5-4.3-10.3-6.2-10.9-5.6-.6.6-.1 2 1.7 3.8 1.5 1.6 2.3 3.2 1.9 3.9-.4.7-6.1 2.3-12.7 3.7-6.6 1.4-13 2.8-14.3 3.1-2.1.5-2 .2 1.5-5.6 2.1-3.4 5.2-7.7 6.9-9.5 2.8-3.1 3.5-3.3 5.9-2.4 3.5 1.3 4.5 1.3 4.5-.3 0-1.3-22.8-16.7-24.8-16.7-.7 0-1.2.6-1.2 1.3zM161 157.1c0 .2 1.4 3.8 3.1 7.9 4.5 11 9.7 32.2 11 45.1 1.2 12.4.8 30.2-1.7 68.9-3.1 48.7-1.7 66.3 7.2 91.2 10.5 29.2 25.2 46.5 61.9 73 19.1 13.7 56.3 37.8 58.5 37.8 1.8 0 31.1-19.1 49.8-32.5 41.3-29.5 52.9-40.8 63.7-62.5 7.7-15.3 14.2-40 16-60.5.3-3.9-.1-15.9-.9-26.8-2.9-37.7-3.8-67.2-2.7-83.8 1.1-16.5 2.8-24.1 10-45.3 2.3-6.6 4-12.1 3.8-12.2-.1-.1-9 .9-19.7 2.1-77.4 9.2-157.5 9.4-236.2.5-9.8-1.1-19.1-2.3-20.8-2.6-1.6-.4-3-.5-3-.3zm118 135.1c9.6 13.3 17.6 24.6 17.8 25.2.1.6-5.7 9.7-13.1 20.1l-13.3 19-42.1.3-42.1.2-1.6-6.7c-3.9-17.4-4.4-33.2-2.1-61.3.8-9.6 1.5-18.3 1.5-19.3 0-1.6 2.5-1.7 38.8-1.7h38.8l17.4 24.2zm45.9-14c-3.9 5.7-10.7 15.6-15.2 22-4.4 6.5-8.3 11.8-8.6 11.8-.3 0-4.7-6-9.8-13.3-5-7.2-11.9-17.1-15.2-22L270 268h62.1l-7.2 10.2zm93.7-3.5c.4 3.8.8 17.6.8 30.8.1 22.7-.7 33.6-3.6 46.8l-1 4.7-41.5-.2-41.6-.3-13.4-19c-7.3-10.5-13.2-19.5-13.1-20 .2-.6 8.2-12 17.8-25.3l17.5-24.2H417.8l.8 6.7zm-105 65.1l12 16.7-23.9.3c-13.2.1-24.2 0-24.5-.2-.5-.5 22.9-33.5 23.8-33.5.3 0 5.9 7.5 12.6 16.7z"/><path d="M219.7 282.4c-5 1.8-7.6 4.2-9.8 9.1-3.6 7.9-1.6 15.5 5.5 20.7 2.3 1.6 7.5 4.7 11.7 6.9 10.4 5.4 12.6 10.4 7 16-3.3 3.3-7.1 3.7-12.5 1.5-4.1-1.7-7.1-5.5-9.3-11.8-1.2-3.3-2.3-4.8-3.5-4.8-1.6 0-1.8 1.1-1.8 10.5 0 8.6.3 10.7 1.5 11.2.9.3 2.1-.2 2.8-1.1 1.1-1.6 1.7-1.6 7.7 0 14.9 3.8 27.4-2.7 28.7-15 1.1-9.3-3.1-14.7-16-21.2-9.6-4.9-12.5-7-12.9-9.7-1.4-8.6 8-12.5 16.2-6.7 1.6 1.1 4.1 4.5 5.5 7.6 1.4 3 3.2 5.3 3.8 5.1.8-.2 1.3-3.7 1.5-10 .3-9.2.2-9.7-1.8-9.7-1.1 0-2 .7-2 1.5s-.7 1.5-1.5 1.5c-.7 0-4-.7-7.2-1.5-6.9-1.8-8.7-1.8-13.6-.1zM366.7 282c-6.2 1.6-11.2 4.7-15.5 9.5-5.6 6.3-7.6 12.7-7 22.4.7 12.3 6.6 21 17.5 25.8 5.9 2.6 20.9 2.3 29.6-.6l6.7-2.3v-7.6c0-8.7.4-9.8 4.3-10.7 1.5-.4 2.7-1.3 2.7-2.1 0-1.1-2.9-1.4-15-1.4-12.7 0-15 .2-15 1.5 0 .9.9 1.5 2.5 1.5 4.4 0 6.5 3.2 6.5 10 0 8.1-2.2 10.4-9.1 9.8-10.4-1-14.1-7.1-14.7-24.3-.6-16.3 2.4-24.4 10-27.3 7.4-2.8 15.5 1.5 21.3 11.4 4.3 7.4 5.5 6.1 5.5-6.1 0-8.3-.3-10.5-1.4-10.5-.7 0-2 1-2.8 2.2l-1.5 2.3-5.6-1.8c-7.2-2.3-14.1-2.9-19-1.7zM84.3 347.1c-2.3 1.1-5.2 3.6-6.3 5.4-1.8 3-2.6 6-6 22.7-1.3 6.4-3.5 8.8-8.3 8.8-7.8 0-12-8.6-8.3-17.3 1.2-3 6.4-8.4 10.1-10.4.9-.6 1.3-1.6 1-2.5-.6-1.4-2-1.2-11.1 1.9-10 3.3-12.7 5.5-8.6 6.5 1.5.4 2 1.9 2.5 7.2.7 7.2 3.5 14.7 7 18.4 6.5 7 17.5 7.6 24.8 1.5 4.1-3.5 5.5-7.1 7.4-18.8 1.9-11.4 2.8-14 5.4-15.4 3.1-1.7 7.6-1.3 9.5.8 4.9 5.4 3.7 13.3-3 20-7.2 7.1-5.8 8.1 5.7 4.2 8.3-2.7 11.1-5.3 7.1-6.3-1.5-.4-2-1.8-2.5-7.2-1.1-11.2-5.2-18-12.6-20.5-5-1.6-9.1-1.4-13.8 1zM497.7 345.7c-.2.5-3.6 10.8-7.6 23-3.9 12.2-7.4 22.9-7.7 23.8-.4 1 0 1.5 1.4 1.5 1.1 0 2.2-.8 2.5-1.9 1.2-4.6 3.3-4.3 25.8 3 22.9 7.6 25.2 8.9 24.2 14-.4 2.2-.2 2.9 1 2.9 1.1 0 3.3-4.5 7.1-14.3 3.1-7.8 5.6-14.8 5.6-15.5 0-2.3-3-1.2-3.6 1.3-.3 1.4-1.5 3.2-2.6 3.9-1.7 1.2-3.3.9-12.9-2.2-6-2-10.9-4.2-10.9-4.9 0-.6 1.1-2.5 2.4-4 2.2-2.5 3.1-2.8 8.5-2.8 10.1.1 7.5-2.2-8.6-7.6-15.8-5.3-17.9-4.9-10.5 1.7 4 3.5 4.6 4.6 4.5 7.8-.1 2.1-.3 4-.6 4.3-.6.5-18.2-5.1-20.7-6.7-1.2-.7-1.2-1.6.4-6.5.9-3.1 2.9-7 4.4-8.6 2.8-3.1 9-5.2 12.8-4.3 2.3.6 4.3-2.3 2.1-3.1-2.5-1-16.1-5.5-16.3-5.5-.2 0-.5.3-.7.7zM113.7 382.6c-.3.4-.2 1.5.4 2.6 2.3 4.3.5 6-19.2 17.3-10.6 6-20.1 11.4-21.2 11.8-1.5.6-2.8.1-4.9-2-1.8-1.8-3.2-2.3-3.8-1.7-.6.6 3.4 8.5 11.6 22.9 7 12.1 12.8 22.2 13.1 22.5.2.2 4.3-1 9.1-2.7 9.9-3.4 11.4-5.6 4.2-6.1-8-.4-10.9-1.2-14.1-4-3.5-2.9-8.9-10.8-8.9-12.9 0-1.3 5-4.8 15.3-10.7l4.8-2.7 1.5 3.6c1.8 4.5 1.2 6.6-3.3 11.6-5.9 6.5-1.8 5.8 12-2.1 9.2-5.3 12.4-7.6 12-8.7-.4-.9-1.3-1.3-2.7-.9-7.5 2.1-9.4 1.9-12.6-1.2-1.6-1.7-3-3.4-3-3.9.1-1.3 18.9-11.5 20-10.8 2 1.2 7 12.4 7 15.5 0 3.7-1.3 6.5-4.8 10.3-1.8 1.8-2.3 3-1.6 3.7.7.7 3.5-.3 8.7-3.2 4.2-2.4 7.7-4.7 7.7-5.1 0-1.6-24.6-43.7-25.6-43.7-.6 0-1.4.3-1.7.6zM472.8 406.7c-.8 1-5 6.9-9.2 13.1-6.3 9.1-7.4 11.3-6.1 11.8 1 .4 2.6-.2 4-1.6 1.4-1.3 3.1-2 4-1.7 3.8 1.5 39.5 27.1 40 28.8.3 1 .1 2.8-.5 4-.9 1.5-.9 2.4-.1 3.2 1.4 1.4.7 2.4 16.5-21.7l13.7-20.9-7.3-7.4c-4-4-7.6-7.3-7.9-7.3-1.9 0-1.4 3.3 1.2 8.5 3.2 6.3 3.5 10 1.5 15.8-1.7 4.8-6.3 10.7-8.2 10.7-1.6 0-35.3-22.7-38.9-26.1-1.7-1.7-1.8-2.3-.7-5.1 1.8-4.6 1.8-5 .6-5.4-.6-.3-1.7.3-2.6 1.3zM141.9 429.7c-.1.5-.1 3.1.1 6l.2 5.1-14.7 16.1c-14.8 16.3-16.4 17.4-20.5 14.9-1.4-.9-2.3-.9-3-.2-.8.8 1 3 6.5 7.9 5.3 4.8 7.9 6.5 8.6 5.8.8-.8.6-1.9-.7-3.8-1.3-2-1.5-3.3-.8-5 .9-2.5 23.4-27.9 24-27.2.2.2-.3 13.3-1.1 29.2-.8 15.8-1.2 29.2-.9 29.7.3.5 1.1.8 1.8.6.7-.2 8.8-8.6 18-18.8 9.1-10.2 17.6-19.1 18.7-19.9 1.6-1.1 2.5-1.2 4.6-.2 2.8 1.3 5.7-.1 3.7-1.7-.5-.5-3.7-3.5-7.2-6.7-4.9-4.6-6.5-5.6-7.2-4.5-.5.8-.3 2.1.6 3.4 2.6 3.8 1.6 6-7.8 16.4-5 5.6-9.3 10-9.5 9.8-.3-.2.1-10.4.7-22.7l1.2-22.3-6.8-6.3c-6.7-6.1-8.3-7.1-8.5-5.6zM446.2 444.1c-6.5 2.5-14.5 10.2-17.5 16.6-3.1 6.8-3.1 18.1.1 24.4 3.3 6.7 8.3 12.1 14.3 15.4 4.8 2.7 6.3 3 13.9 3 9.7 0 14.1-1.8 21.4-8.5 6-5.6 9-12 9.4-20.7.4-6 0-8-2.1-12.6-5.4-11.8-15.1-18.8-27.1-19.4-5.5-.2-8.3.2-12.4 1.8zm10.1 9.7c6 3.2 16.9 14.6 20.2 21.2 3.6 7.1 3.4 12.1-.7 16.5-6.9 7.5-15.2 5.3-27.9-7.5-14.8-14.9-16.9-27.5-5.4-32.6 3.7-1.6 7.5-1 13.8 2.4zM191.8 473.2c-.3.7.6 2.1 1.9 3.1 1.3 1 2.3 2.8 2.3 4-.1 1.2-5.1 11.2-11.3 22.2l-11.3 20-4.7-.2c-3.2-.2-4.7.1-4.7 1 0 1.1 25 15.7 27 15.7 1.8 0 1-2.2-1.6-4.6-1.7-1.7-2.3-3-1.9-4.4 1.3-4.1 22.1-40.4 23.7-41.4 1.3-.8 2.6-.7 4.7.1 2.3.8 3.1.8 3.5-.2.3-.8-.1-1.8-.7-2.3-1.7-1.3-25.3-14.2-26-14.2-.3 0-.7.6-.9 1.2zM406.7 472.7c-.4.3-.7 1.7-.7 2.9 0 2.4-.5 2.7-9 4.4-16 3.1-25.8 15.5-24.8 31.2.8 11.8 7.1 21.7 17.1 27 3.4 1.8 5.8 2.3 12.7 2.3 7.9 0 9-.3 15.5-3.8 4.1-2.1 9.6-6.3 13-9.7l5.9-6-3.7-7.2c-2.1-4-3.7-7.8-3.7-8.5 0-.6 1.1-2 2.5-3 1.7-1.2 2.2-2.2 1.6-3.1-.6-1.1-3.8.2-14 5.8-7.2 4-13.1 7.6-13.1 8 0 1.7 1.7 1.9 4.8.8 3.9-1.5 5.4-.3 9.3 7.4l3 5.9-2.9 2.9c-1.6 1.5-4.7 3.4-6.9 4-3.7 1.1-4.6 1-8.7-.9-8.8-4.3-19.6-21.8-20.4-33.1-.5-7.2 1.5-11.3 6.8-14 5.6-2.9 9.8-2.5 17.6 1.5 7.2 3.6 9.4 4.2 9.4 2.5 0-1.5-9.1-18-9.9-18-.4 0-1.1.3-1.4.7zM230.9 495.3c-7.9 2.2-15.3 8.9-19.1 17.2-1.8 4-2.3 6.8-2.3 13.5 0 7.6.3 9.1 3 13.8 5.5 10.1 15.2 15.6 27.5 15.7 6.2 0 8.5-.5 13.2-2.8 10.8-5.3 16.8-15.6 16.8-29 0-12.2-5.8-21-17.5-26.3-6.4-3-15.5-3.8-21.6-2.1zm18.1 5c3.3 1.6 7 9.1 7 14.2 0 8.8-5.5 25.8-10.2 31.5-5.8 7.1-16.4 6.4-20.5-1.3-3.6-6.7-.6-25.7 6-37.2 4.1-7.3 11.5-10.3 17.7-7.2zM275 504.4c0 .7 1.4 1.6 3 2 2.1.4 3.4 1.4 4.1 3.3 1.5 3.6.4 46-1.2 47.9-.6.7-2 1.4-3.2 1.6-1.2.2-2.3 1.1-2.5 2.1-.3 1.6.9 1.7 14.7 1.7 12.8 0 15.1-.2 15.1-1.5 0-.8-.6-1.5-1.4-1.5-.8 0-2.3-.8-3.5-1.8-2-1.6-2.2-2.5-1.9-11l.3-9.4 9.3 12.6 9.3 12.6h5.2c7.7 0 12.7-1.1 12.7-2.6 0-.8-.5-1.4-1-1.4-.6 0-5.1-5.5-10-12.2l-9-12.2 3.7-1.8c5.4-2.6 8.2-5.7 9.4-10.2 2.3-8.5-3.3-16.4-13.1-18.5-2.8-.6-13-1.1-22.5-1.1-14.2 0-17.5.3-17.5 1.4zm34.5 5c2.7 2.8 4.1 9.6 2.8 14.6-1.1 4.1-4.4 6.6-10 7.5l-4.3.7v-11.9c0-6.6.3-12.3.7-12.6.3-.4 2.4-.7 4.5-.7 2.8 0 4.6.7 6.3 2.4z"/></svg>